<?xml version="1.0" encoding="utf-8" ?>
<svg xmlns="http://www.w3.org/2000/svg" xmlns:xlink="http://www.w3.org/1999/xlink" width="32" height="32">
	<defs>
		<clipPath id="clip_0">
			<rect x="-528" y="-724" width="1020" height="1496" clip-rule="evenodd"/>
		</clipPath>
	</defs>
	<g clip-path="url(#clip_0)">
		<path fill="rgb(50,98,149)" stroke="none" transform="translate(7 6)" d="M13 0L13 2L5 2L5 0L3 0L3 2L2 2C0.9 2 0 2.9 0 4L0 18C0 19.1 0.9 20 2 20L16 20C17.1 20 18 19.1 18 18L18 4C18 2.9 17.1 2 16 2L15 2L15 0L13 0ZM2 7L2 18L16 18L16 7L2 7ZM14 11L9 11L9 16L14 16L14 11Z" fill-rule="evenodd"/>
	</g>
	<defs>
		<clipPath id="clip_1">
			<path d="M20 8L20 6L22 6L22 8L23 8C24.1 8 25 8.9 25 10L25 24C25 25.1 24.1 26 23 26L9 26C7.9 26 7 25.1 7 24L7 10C7 8.9 7.9 8 9 8L10 8L10 6L12 6L12 8L20 8ZM9 24L9 13L23 13L23 24L9 24ZM16 17L21 17L21 22L16 22L16 17Z" clip-rule="evenodd"/>
		</clipPath>
	</defs>
	<g clip-path="url(#clip_1)">
		<path fill="rgb(50,98,149)" stroke="none" d="M0 0L32 0L32 32L0 32L0 0Z"/>
	</g>

</svg>